<svg xmlns="http://www.w3.org/2000/svg" xmlns:xlink="http://www.w3.org/1999/xlink" xmlns:lucid="lucid" width="821" height="865"><g transform="translate(760.5 100.5)" lucid:page-tab-id="0_0"><path d="M-240 165a5 5 0 0 1 5-5H35a5 5 0 0 1 5 5v222a5 5 0 0 1-5 5h-270a5 5 0 0 1-5-5z" fill="#fff"/><path d="M-240 200v-35a5 5 0 0 1 5-5H35a5 5 0 0 1 5 5v35" fill="#ccc"/><path d="M-240 165a5 5 0 0 1 5-5H35a5 5 0 0 1 5 5v222a5 5 0 0 1-5 5h-270a5 5 0 0 1-5-5zM-240 200H40M-100 200v192" stroke="#333" fill="none"/><use xlink:href="#a" transform="matrix(1,0,0,1,-230,160) translate(0 23.6)"/><use xlink:href="#b" transform="matrix(1,0,0,1,-235,202.5) translate(0 17.1)"/><use xlink:href="#c" transform="matrix(1,0,0,1,-235,202.5) translate(18.95 17.1)"/><use xlink:href="#d" transform="matrix(1,0,0,1,-95,202.5) translate(0 17.1)"/><use xlink:href="#e" transform="matrix(1,0,0,1,-235,234.5) translate(0 17.1)"/><use xlink:href="#f" transform="matrix(1,0,0,1,-95,234.5) translate(0 17.1)"/><use xlink:href="#g" transform="matrix(1,0,0,1,-235,266.5) translate(0 17.1)"/><use xlink:href="#h" transform="matrix(1,0,0,1,-95,266.5) translate(0 17.1)"/><use xlink:href="#i" transform="matrix(1,0,0,1,-235,298.5) translate(0 17.1)"/><use xlink:href="#h" transform="matrix(1,0,0,1,-95,298.5) translate(0 17.1)"/><use xlink:href="#j" transform="matrix(1,0,0,1,-235,330.5) translate(0 17.1)"/><use xlink:href="#k" transform="matrix(1,0,0,1,-235,330.5) translate(62.95 17.1)"/><use xlink:href="#d" transform="matrix(1,0,0,1,-95,330.5) translate(0 17.1)"/><use xlink:href="#l" transform="matrix(1,0,0,1,-235,362.5) translate(0 17.1)"/><use xlink:href="#k" transform="matrix(1,0,0,1,-235,362.5) translate(63.900000000000006 17.1)"/><use xlink:href="#d" transform="matrix(1,0,0,1,-95,362.5) translate(0 17.1)"/><path d="M-500 485a5 5 0 0 1 5-5h270a5 5 0 0 1 5 5v254a5 5 0 0 1-5 5h-270a5 5 0 0 1-5-5z" fill="#fff"/><path d="M-500 520v-35a5 5 0 0 1 5-5h270a5 5 0 0 1 5 5v35" fill="#ccc"/><path d="M-500 485a5 5 0 0 1 5-5h270a5 5 0 0 1 5 5v254a5 5 0 0 1-5 5h-270a5 5 0 0 1-5-5zM-500 520h280M-360 520v224" stroke="#333" fill="none"/><use xlink:href="#m" transform="matrix(1,0,0,1,-490,480) translate(0 23.6)"/><use xlink:href="#b" transform="matrix(1,0,0,1,-495,522.5) translate(0 17.1)"/><use xlink:href="#c" transform="matrix(1,0,0,1,-495,522.5) translate(18.95 17.1)"/><use xlink:href="#n" transform="matrix(1,0,0,1,-355,522.5) translate(0 17.1)"/><use xlink:href="#o" transform="matrix(1,0,0,1,-495,554.5) translate(0 17.1)"/><use xlink:href="#p" transform="matrix(1,0,0,1,-355,554.5) translate(0 17.1)"/><use xlink:href="#e" transform="matrix(1,0,0,1,-495,586.5) translate(0 17.1)"/><use xlink:href="#f" transform="matrix(1,0,0,1,-355,586.5) translate(0 17.1)"/><use xlink:href="#q" transform="matrix(1,0,0,1,-495,618.5) translate(0 17.1)"/><use xlink:href="#r" transform="matrix(1,0,0,1,-355,618.5) translate(0 17.1)"/><use xlink:href="#g" transform="matrix(1,0,0,1,-495,650.5) translate(0 17.1)"/><use xlink:href="#h" transform="matrix(1,0,0,1,-355,650.5) translate(0 17.1)"/><use xlink:href="#s" transform="matrix(1,0,0,1,-495,682.5) translate(0 17.1)"/><use xlink:href="#h" transform="matrix(1,0,0,1,-355,682.5) translate(0 17.1)"/><use xlink:href="#t" transform="matrix(1,0,0,1,-495,714.5) translate(0 17.1)"/><use xlink:href="#u" transform="matrix(1,0,0,1,-495,714.5) translate(63.900000000000006 17.1)"/><use xlink:href="#d" transform="matrix(1,0,0,1,-355,714.5) translate(0 17.1)"/><path d="M-740 165a5 5 0 0 1 5-5h270a5 5 0 0 1 5 5v222a5 5 0 0 1-5 5h-270a5 5 0 0 1-5-5z" fill="#fff"/><path d="M-740 200v-35a5 5 0 0 1 5-5h270a5 5 0 0 1 5 5v35" fill="#ccc"/><path d="M-740 165a5 5 0 0 1 5-5h270a5 5 0 0 1 5 5v222a5 5 0 0 1-5 5h-270a5 5 0 0 1-5-5zM-740 200h280M-601.72 200v192" stroke="#333" fill="none"/><use xlink:href="#v" transform="matrix(1,0,0,1,-730,160) translate(0 23.6)"/><use xlink:href="#b" transform="matrix(1,0,0,1,-735,202.5) translate(0 17.1)"/><use xlink:href="#c" transform="matrix(1,0,0,1,-735,202.5) translate(18.95 17.1)"/><use xlink:href="#d" transform="matrix(1,0,0,1,-596.7201654241385,202.5) translate(0 17.1)"/><use xlink:href="#w" transform="matrix(1,0,0,1,-735,234.5) translate(0 17.1)"/><use xlink:href="#p" transform="matrix(1,0,0,1,-596.7201654241385,234.5) translate(0 17.1)"/><use xlink:href="#x" transform="matrix(1,0,0,1,-735,266.5) translate(0 17.1)"/><use xlink:href="#p" transform="matrix(1,0,0,1,-596.7201654241385,266.5) translate(0 17.1)"/><use xlink:href="#g" transform="matrix(1,0,0,1,-735,298.5) translate(0 17.1)"/><use xlink:href="#h" transform="matrix(1,0,0,1,-596.7201654241385,298.5) translate(0 17.1)"/><use xlink:href="#i" transform="matrix(1,0,0,1,-735,330.5) translate(0 17.1)"/><use xlink:href="#h" transform="matrix(1,0,0,1,-596.7201654241385,330.5) translate(0 17.1)"/><use xlink:href="#y" transform="matrix(1,0,0,1,-735,362.5) translate(0 17.1)"/><use xlink:href="#p" transform="matrix(1,0,0,1,-596.7201654241385,362.5) translate(0 17.1)"/><path d="M-560-75a5 5 0 0 1 5-5h410a5 5 0 0 1 5 5V83a5 5 0 0 1-5 5h-410a5 5 0 0 1-5-5z" fill="#fff"/><path d="M-560-40v-35a5 5 0 0 1 5-5h410a5 5 0 0 1 5 5v35" fill="#ccc"/><path d="M-560-75a5 5 0 0 1 5-5h410a5 5 0 0 1 5 5V83a5 5 0 0 1-5 5h-410a5 5 0 0 1-5-5zM-560-40h420M-371.38-40V88" stroke="#333" fill="none"/><use xlink:href="#z" transform="matrix(1,0,0,1,-550,-80) translate(0 23.6)"/><use xlink:href="#b" transform="matrix(1,0,0,1,-555,-37.5) translate(0 17.1)"/><use xlink:href="#c" transform="matrix(1,0,0,1,-555,-37.5) translate(18.95 17.1)"/><use xlink:href="#d" transform="matrix(1,0,0,1,-366.3800284703308,-37.5) translate(0 17.1)"/><use xlink:href="#A" transform="matrix(1,0,0,1,-555,-5.5) translate(0 17.1)"/><use xlink:href="#B" transform="matrix(1,0,0,1,-366.3800284703308,-5.5) translate(0 17.1)"/><use xlink:href="#C" transform="matrix(1,0,0,1,-366.3800284703308,-5.5) translate(49.95 17.1)"/><use xlink:href="#D" transform="matrix(1,0,0,1,-366.3800284703308,-5.5) translate(98.85 17.1)"/><use xlink:href="#E" transform="matrix(1,0,0,1,-366.3800284703308,-5.5) translate(161.65 17.1)"/><use xlink:href="#F" transform="matrix(1,0,0,1,-555,26.5) translate(0 17.1)"/><use xlink:href="#d" transform="matrix(1,0,0,1,-366.3800284703308,26.5) translate(0 17.1)"/><use xlink:href="#G" transform="matrix(1,0,0,1,-555,58.5) translate(0 17.1)"/><use xlink:href="#d" transform="matrix(1,0,0,1,-366.3800284703308,58.5) translate(0 17.1)"/><path d="M-439.5 280h180.18" stroke="#5e5e5e" stroke-width="2" fill="none"/><path d="M-439.5 290v-20M-459.5 280h20" stroke="#5e5e5e" stroke-width="2" fill="#fff"/><path d="M-240.95 290l-20-10 20-10" stroke="#5e5e5e" stroke-width="2" fill="#fff" fill-opacity="0"/><path d="M-240.95 280h-20" stroke="#5e5e5e" stroke-width="2" fill="#fff"/><path d="M-199.5 632.07h93.5a6 6 0 0 0 6-6V411.32" stroke="#5e5e5e" stroke-width="2" fill="none"/><path d="M-199.5 642.07v-20M-219.5 632.07h20" stroke="#5e5e5e" stroke-width="2" fill="#fff"/><path d="M-90 392.95l-10 20-10-20" stroke="#5e5e5e" stroke-width="2" fill="#fff" fill-opacity="0"/><path d="M-100 392.95v20" stroke="#5e5e5e" stroke-width="2" fill="#fff"/><path d="M-600 412.5v213.57a6 6 0 0 0 6 6h74.68" stroke="#5e5e5e" stroke-width="2" fill="none"/><path d="M-610 412.5h20M-600 392.5v20" stroke="#5e5e5e" stroke-width="2" fill="#fff"/><path d="M-500.95 642.07l-20-10 20-10" stroke="#5e5e5e" stroke-width="2" fill="#fff" fill-opacity="0"/><path d="M-500.95 632.07h-20" stroke="#5e5e5e" stroke-width="2" fill="#fff"/><path d="M-100 139.5V14a6 6 0 0 0-6-6h-14.68" stroke="#5e5e5e" stroke-width="2" fill="none"/><path d="M-90 139.5h-20M-100 159.5v-20" stroke="#5e5e5e" stroke-width="2" fill="#fff"/><path d="M-139.05-2l20 10-20 10" stroke="#5e5e5e" stroke-width="2" fill="#fff" fill-opacity="0"/><path d="M-139.05 8h20" stroke="#5e5e5e" stroke-width="2" fill="#fff"/><path d="M-600 139.5V14a6 6 0 0 1 6-6h14.68" stroke="#5e5e5e" stroke-width="2" fill="none"/><path d="M-590 139.5h-20M-600 159.5v-20" stroke="#5e5e5e" stroke-width="2" fill="#fff"/><path d="M-560.95 18l-20-10 20-10" stroke="#5e5e5e" stroke-width="2" fill="#fff" fill-opacity="0"/><path d="M-560.95 8h-20" stroke="#5e5e5e" stroke-width="2" fill="#fff"/><defs><path d="M44-68c0 29 11 47 38 47 30 0 42-19 51-41l28 9C148-21 126 4 82 4 31 4 10-29 12-85c3-77 74-140 146-93 12 8 15 23 18 40l-31 5c-1-22-13-36-36-36-52 0-65 49-65 101" id="H"/><path d="M30-147c31-64 166-65 159 27C183-49 158 1 86 4 9 8 1-88 30-147zM88-20c53 0 68-48 68-100 0-31-11-51-44-50-52 1-68 46-68 97 0 32 13 53 44 53" id="I"/><path d="M248-111c6-24 9-61-24-58-72 9-57 108-77 169h-31l26-142c3-37-50-30-64-10C52-115 50-51 37 0H6l36-190h30c-1 10-6 24-4 32 13-43 101-52 105 5 13-22 29-41 61-41 90 0 28 129 23 194h-31" id="J"/><path d="M111-194c62-3 86 47 72 106H45c-7 38 6 69 45 68 27-1 43-14 53-32l24 11C152-15 129 4 87 4 38 3 12-23 12-71c0-70 32-119 99-123zm44 81c14-66-71-72-95-28-4 8-8 17-11 28h106" id="K"/><path d="M67-158c22-48 132-52 116 29L158 0h-32l25-140c3-38-53-32-70-12C52-117 51-52 38 0H6l36-190h30" id="L"/><path d="M51-54c-9 22 5 41 31 30L79-1C43 14 10-4 19-52l22-115H19l5-23h22l19-43h21l-9 43h35l-4 23H73" id="M"/><path d="M55-144c13 50 104 24 104 88C159 21 15 23 1-39l26-10c6 40 102 42 102-4-13-50-104-23-104-87 0-71 143-71 148-8l-29 4c-5-35-85-37-89 0" id="N"/><g id="a"><use transform="matrix(0.05,0,0,0.05,0,0)" xlink:href="#H"/><use transform="matrix(0.05,0,0,0.05,9,0)" xlink:href="#I"/><use transform="matrix(0.05,0,0,0.05,19,0)" xlink:href="#J"/><use transform="matrix(0.05,0,0,0.05,33.95,0)" xlink:href="#J"/><use transform="matrix(0.05,0,0,0.05,48.900000000000006,0)" xlink:href="#K"/><use transform="matrix(0.05,0,0,0.05,58.900000000000006,0)" xlink:href="#L"/><use transform="matrix(0.05,0,0,0.05,68.9,0)" xlink:href="#M"/><use transform="matrix(0.05,0,0,0.05,73.9,0)" xlink:href="#N"/></g><path fill="#3a414a" d="M50-231l6-30h32l-6 30H50zM6 0l37-190h31L37 0H6" id="O"/><path fill="#3a414a" d="M133-28C103 26-5 8 13-77c13-62 24-115 90-117 29-1 46 15 56 35l19-102h32L160 0h-30zM45-64c-2 27 10 43 35 43 54-1 69-50 69-103 0-29-15-46-42-46-53-1-58 58-62 106" id="P"/><g id="b"><use transform="matrix(0.05,0,0,0.05,0,0)" xlink:href="#O"/><use transform="matrix(0.05,0,0,0.05,3.95,0)" xlink:href="#P"/></g><path fill="#3a414a" d="M17-49c1-102 45-165 103-212h30C92-210 49-145 49-46 49 4 63 43 85 75H54C30 43 18 2 17-49" id="Q"/><path fill="#3a414a" d="M238-179c0 84-86 86-175 82L45 0H11l48-248c82 0 179-12 179 69zm-34 1c0-53-64-42-116-43l-19 98c63 0 135 9 135-55" id="R"/><path fill="#3a414a" d="M180 0L97-118 63-96 45 0H11l48-248h34L69-126c44-43 94-81 141-122h43L121-137 219 0h-39" id="S"/><path fill="#3a414a" d="M98-137C97-35 54 29-4 75h-31C23 23 67-41 67-140c0-50-15-89-37-121h31c24 32 36 73 37 124" id="T"/><g id="c"><use transform="matrix(0.05,0,0,0.05,0,0)" xlink:href="#Q"/><use transform="matrix(0.05,0,0,0.05,5.95,0)" xlink:href="#R"/><use transform="matrix(0.05,0,0,0.05,17.95,0)" xlink:href="#S"/><use transform="matrix(0.05,0,0,0.05,29.950000000000003,0)" xlink:href="#T"/></g><path fill="#3a414a" d="M68-162c25-46 127-43 121 31C183-60 169 1 98 4 69 5 53-11 43-31L36 0H5l52-261h31zm88 36c2-27-9-43-34-43-55 0-70 51-70 103 0 29 15 45 43 46 52 0 58-58 61-106" id="U"/><path fill="#3a414a" d="M103-194c29 0 47 14 56 36 2-11 5-23 8-32h30L160-5C157 61 82 97 21 62 9 55 4 45 1 30l28-7c7 42 83 31 92-3 4-16 9-38 13-55-13 20-29 36-62 36-40 0-60-25-60-64 0-71 23-131 91-131zm4 24c-53 0-58 54-61 104-2 27 10 44 36 44 49 0 65-50 67-102 1-29-15-46-42-46" id="V"/><path fill="#3a414a" d="M67-158c22-48 132-52 116 29L158 0h-32l25-140c3-38-53-32-70-12C52-117 51-52 38 0H6l36-190h30" id="W"/><path fill="#3a414a" d="M51-54c-9 22 5 41 31 30L79-1C43 14 10-4 19-52l22-115H19l5-23h22l19-43h21l-9 43h35l-4 23H73" id="X"/><g id="d"><use transform="matrix(0.05,0,0,0.05,0,0)" xlink:href="#U"/><use transform="matrix(0.05,0,0,0.05,10,0)" xlink:href="#O"/><use transform="matrix(0.05,0,0,0.05,13.949999999999998,0)" xlink:href="#V"/><use transform="matrix(0.05,0,0,0.05,23.95,0)" xlink:href="#O"/><use transform="matrix(0.05,0,0,0.05,27.899999999999995,0)" xlink:href="#W"/><use transform="matrix(0.05,0,0,0.05,37.9,0)" xlink:href="#X"/></g><path fill="#3a414a" d="M44-68c0 29 11 47 38 47 30 0 42-19 51-41l28 9C148-21 126 4 82 4 31 4 10-29 12-85c3-77 74-140 146-93 12 8 15 23 18 40l-31 5c-1-22-13-36-36-36-52 0-65 49-65 101" id="Y"/><path fill="#3a414a" d="M30-147c31-64 166-65 159 27C183-49 158 1 86 4 9 8 1-88 30-147zM88-20c53 0 68-48 68-100 0-31-11-51-44-50-52 1-68 46-68 97 0 32 13 53 44 53" id="Z"/><path fill="#3a414a" d="M111-194c62-3 86 47 72 106H45c-7 38 6 69 45 68 27-1 43-14 53-32l24 11C152-15 129 4 87 4 38 3 12-23 12-71c0-70 32-119 99-123zm44 81c14-66-71-72-95-28-4 8-8 17-11 28h106" id="aa"/><g id="e"><use transform="matrix(0.05,0,0,0.05,0,0)" xlink:href="#Y"/><use transform="matrix(0.05,0,0,0.05,9,0)" xlink:href="#Z"/><use transform="matrix(0.05,0,0,0.05,19,0)" xlink:href="#W"/><use transform="matrix(0.05,0,0,0.05,29,0)" xlink:href="#X"/><use transform="matrix(0.05,0,0,0.05,34,0)" xlink:href="#aa"/><use transform="matrix(0.05,0,0,0.05,44,0)" xlink:href="#W"/><use transform="matrix(0.05,0,0,0.05,54,0)" xlink:href="#X"/></g><path fill="#3a414a" d="M124 0L87-78 21 0h-35l86-98-46-92h33l34 74 61-74h37l-83 92 50 98h-34" id="ab"/><g id="f"><use transform="matrix(0.05,0,0,0.05,0,0)" xlink:href="#X"/><use transform="matrix(0.05,0,0,0.05,5,0)" xlink:href="#aa"/><use transform="matrix(0.05,0,0,0.05,15,0)" xlink:href="#ab"/><use transform="matrix(0.05,0,0,0.05,24,0)" xlink:href="#X"/></g><path fill="#3a414a" d="M66-151c12-25 30-51 66-40l-6 26C45-176 58-65 38 0H6l36-190h30" id="ac"/><path fill="#3a414a" d="M165-48c-4 18 1 34 23 27l-3 20c-29 8-62 0-52-35h-2C116-14 99 4 63 4 30 4 8-16 8-49c0-68 71-67 138-67 10-26 0-56-31-54-26 1-42 9-47 31l-32-5c8-67 160-71 144 15-5 28-9 54-15 81zM42-50c3 52 80 24 89-6 7-12 7-24 11-38-47 1-103-4-100 44" id="ad"/><path fill="#3a414a" d="M-28 44V31h207v13H-28" id="ae"/><g id="g"><use transform="matrix(0.05,0,0,0.05,0,0)" xlink:href="#Y"/><use transform="matrix(0.05,0,0,0.05,9,0)" xlink:href="#ac"/><use transform="matrix(0.05,0,0,0.05,14.949999999999998,0)" xlink:href="#aa"/><use transform="matrix(0.05,0,0,0.05,24.95,0)" xlink:href="#ad"/><use transform="matrix(0.05,0,0,0.05,34.95,0)" xlink:href="#X"/><use transform="matrix(0.05,0,0,0.05,39.95,0)" xlink:href="#aa"/><use transform="matrix(0.05,0,0,0.05,49.95,0)" xlink:href="#P"/><use transform="matrix(0.05,0,0,0.05,59.95,0)" xlink:href="#ae"/><use transform="matrix(0.05,0,0,0.05,69.95,0)" xlink:href="#ad"/><use transform="matrix(0.05,0,0,0.05,79.95,0)" xlink:href="#X"/></g><path fill="#3a414a" d="M248-111c6-24 9-61-24-58-72 9-57 108-77 169h-31l26-142c3-37-50-30-64-10C52-115 50-51 37 0H6l36-190h30c-1 10-6 24-4 32 13-43 101-52 105 5 13-22 29-41 61-41 90 0 28 129 23 194h-31" id="af"/><path fill="#3a414a" d="M55-144c13 50 104 24 104 88C159 21 15 23 1-39l26-10c6 40 102 42 102-4-13-50-104-23-104-87 0-71 143-71 148-8l-29 4c-5-35-85-37-89 0" id="ag"/><path fill="#3a414a" d="M67-162c32-53 139-36 121 50C175-51 163 2 97 4 68 4 52-11 42-31 38 6 28 39 22 75H-9l50-265h29c-1 10 0 20-3 28zm89 36c0-26-10-43-35-43-54 0-67 50-69 103-1 29 14 45 42 46 53 0 62-58 62-106" id="ah"/><path fill="#3a414a" d="M16-82c0-90 25-169 113-169 48 0 68 33 68 82C197-79 170 4 84 4 37 4 16-31 16-82zm30 5c0 32 11 55 40 55 69 0 76-79 80-149 2-32-10-55-39-55-69 0-81 81-81 149" id="ai"/><g id="h"><use transform="matrix(0.05,0,0,0.05,0,0)" xlink:href="#X"/><use transform="matrix(0.05,0,0,0.05,5,0)" xlink:href="#O"/><use transform="matrix(0.05,0,0,0.05,8.95,0)" xlink:href="#af"/><use transform="matrix(0.05,0,0,0.05,23.9,0)" xlink:href="#aa"/><use transform="matrix(0.05,0,0,0.05,33.9,0)" xlink:href="#ag"/><use transform="matrix(0.05,0,0,0.05,42.9,0)" xlink:href="#X"/><use transform="matrix(0.05,0,0,0.05,47.9,0)" xlink:href="#ad"/><use transform="matrix(0.05,0,0,0.05,57.900000000000006,0)" xlink:href="#af"/><use transform="matrix(0.05,0,0,0.05,72.85,0)" xlink:href="#ah"/><use transform="matrix(0.05,0,0,0.05,82.85,0)" xlink:href="#Q"/><use transform="matrix(0.05,0,0,0.05,88.8,0)" xlink:href="#ai"/><use transform="matrix(0.05,0,0,0.05,98.8,0)" xlink:href="#T"/></g><path fill="#3a414a" d="M67 3c-93-2-31-127-26-193h32L48-50c-3 39 53 32 70 12 30-34 30-101 43-152h32L157 0h-30c1-10 6-24 4-33-14 20-29 37-64 36" id="aj"/><g id="i"><use transform="matrix(0.05,0,0,0.05,0,0)" xlink:href="#aj"/><use transform="matrix(0.05,0,0,0.05,10,0)" xlink:href="#ah"/><use transform="matrix(0.05,0,0,0.05,20,0)" xlink:href="#P"/><use transform="matrix(0.05,0,0,0.05,30,0)" xlink:href="#ad"/><use transform="matrix(0.05,0,0,0.05,40,0)" xlink:href="#X"/><use transform="matrix(0.05,0,0,0.05,45,0)" xlink:href="#aa"/><use transform="matrix(0.05,0,0,0.05,55,0)" xlink:href="#P"/><use transform="matrix(0.05,0,0,0.05,65,0)" xlink:href="#ae"/><use transform="matrix(0.05,0,0,0.05,75,0)" xlink:href="#ad"/><use transform="matrix(0.05,0,0,0.05,85,0)" xlink:href="#X"/></g><g id="j"><use transform="matrix(0.05,0,0,0.05,0,0)" xlink:href="#ah"/><use transform="matrix(0.05,0,0,0.05,10,0)" xlink:href="#Z"/><use transform="matrix(0.05,0,0,0.05,20,0)" xlink:href="#ag"/><use transform="matrix(0.05,0,0,0.05,29,0)" xlink:href="#X"/><use transform="matrix(0.05,0,0,0.05,34,0)" xlink:href="#ae"/><use transform="matrix(0.05,0,0,0.05,44,0)" xlink:href="#O"/><use transform="matrix(0.05,0,0,0.05,47.95,0)" xlink:href="#P"/></g><path fill="#3a414a" d="M87-220l-18 92h140l-5 28H64L45 0H11l48-248h178l-5 28H87" id="ak"/><g id="k"><use transform="matrix(0.05,0,0,0.05,0,0)" xlink:href="#Q"/><use transform="matrix(0.05,0,0,0.05,5.95,0)" xlink:href="#ak"/><use transform="matrix(0.05,0,0,0.05,16.900000000000002,0)" xlink:href="#S"/><use transform="matrix(0.05,0,0,0.05,28.900000000000002,0)" xlink:href="#T"/></g><g id="l"><use transform="matrix(0.05,0,0,0.05,0,0)" xlink:href="#aj"/><use transform="matrix(0.05,0,0,0.05,10,0)" xlink:href="#ag"/><use transform="matrix(0.05,0,0,0.05,19,0)" xlink:href="#aa"/><use transform="matrix(0.05,0,0,0.05,29,0)" xlink:href="#ac"/><use transform="matrix(0.05,0,0,0.05,34.95,0)" xlink:href="#ae"/><use transform="matrix(0.05,0,0,0.05,44.95,0)" xlink:href="#O"/><use transform="matrix(0.05,0,0,0.05,48.900000000000006,0)" xlink:href="#P"/></g><path d="M67-162c32-53 139-36 121 50C175-51 163 2 97 4 68 4 52-11 42-31 38 6 28 39 22 75H-9l50-265h29c-1 10 0 20-3 28zm89 36c0-26-10-43-35-43-54 0-67 50-69 103-1 29 14 45 42 46 53 0 62-58 62-106" id="al"/><g id="m"><use transform="matrix(0.05,0,0,0.05,0,0)" xlink:href="#al"/><use transform="matrix(0.05,0,0,0.05,10,0)" xlink:href="#I"/><use transform="matrix(0.05,0,0,0.05,20,0)" xlink:href="#N"/><use transform="matrix(0.05,0,0,0.05,29,0)" xlink:href="#M"/><use transform="matrix(0.05,0,0,0.05,34,0)" xlink:href="#N"/></g><g id="n"><use transform="matrix(0.05,0,0,0.05,0,0)" xlink:href="#O"/><use transform="matrix(0.05,0,0,0.05,3.95,0)" xlink:href="#W"/><use transform="matrix(0.05,0,0,0.05,13.949999999999998,0)" xlink:href="#X"/></g><path fill="#3a414a" d="M6 0l50-261h32L37 0H6" id="am"/><g id="o"><use transform="matrix(0.05,0,0,0.05,0,0)" xlink:href="#X"/><use transform="matrix(0.05,0,0,0.05,5,0)" xlink:href="#O"/><use transform="matrix(0.05,0,0,0.05,8.95,0)" xlink:href="#X"/><use transform="matrix(0.05,0,0,0.05,13.949999999999998,0)" xlink:href="#am"/><use transform="matrix(0.05,0,0,0.05,17.9,0)" xlink:href="#aa"/></g><path fill="#3a414a" d="M89 0H52L20-190h33L74-25l89-165h34" id="an"/><path fill="#3a414a" d="M67-158c15-20 31-36 64-36 94 0 33 127 27 194h-32l25-140c3-38-53-32-70-12C52-117 51-51 37 0H6l51-261h31" id="ao"/><path fill="#3a414a" d="M123-251c66 0 92 69 53 113C138-94 73-75 39-27h128l-5 27H-2c17-92 123-93 159-163 14-28-1-64-36-62-29 2-46 17-54 41l-30-6c13-36 37-61 86-61" id="ap"/><path fill="#3a414a" d="M151-85c6-55-69-56-94-29H26l34-134h141l-5 27H84l-20 79c41-34 127-11 121 53C199 13 30 38 8-54l29-8C52 0 159-13 151-85" id="aq"/><g id="p"><use transform="matrix(0.05,0,0,0.05,0,0)" xlink:href="#an"/><use transform="matrix(0.05,0,0,0.05,9,0)" xlink:href="#ad"/><use transform="matrix(0.05,0,0,0.05,19,0)" xlink:href="#ac"/><use transform="matrix(0.05,0,0,0.05,24.95,0)" xlink:href="#Y"/><use transform="matrix(0.05,0,0,0.05,33.95,0)" xlink:href="#ao"/><use transform="matrix(0.05,0,0,0.05,43.95,0)" xlink:href="#ad"/><use transform="matrix(0.05,0,0,0.05,53.95,0)" xlink:href="#ac"/><use transform="matrix(0.05,0,0,0.05,59.900000000000006,0)" xlink:href="#Q"/><use transform="matrix(0.05,0,0,0.05,65.85000000000001,0)" xlink:href="#ap"/><use transform="matrix(0.05,0,0,0.05,75.85000000000001,0)" xlink:href="#aq"/><use transform="matrix(0.05,0,0,0.05,85.85000000000001,0)" xlink:href="#aq"/><use transform="matrix(0.05,0,0,0.05,95.85000000000001,0)" xlink:href="#T"/></g><g id="q"><use transform="matrix(0.05,0,0,0.05,0,0)" xlink:href="#O"/><use transform="matrix(0.05,0,0,0.05,3.95,0)" xlink:href="#ag"/><use transform="matrix(0.05,0,0,0.05,12.949999999999998,0)" xlink:href="#ae"/><use transform="matrix(0.05,0,0,0.05,22.95,0)" xlink:href="#ad"/><use transform="matrix(0.05,0,0,0.05,32.95,0)" xlink:href="#Y"/><use transform="matrix(0.05,0,0,0.05,41.95,0)" xlink:href="#X"/><use transform="matrix(0.05,0,0,0.05,46.95,0)" xlink:href="#O"/><use transform="matrix(0.05,0,0,0.05,50.900000000000006,0)" xlink:href="#an"/><use transform="matrix(0.05,0,0,0.05,59.900000000000006,0)" xlink:href="#aa"/></g><g id="r"><use transform="matrix(0.05,0,0,0.05,0,0)" xlink:href="#U"/><use transform="matrix(0.05,0,0,0.05,10,0)" xlink:href="#Z"/><use transform="matrix(0.05,0,0,0.05,20,0)" xlink:href="#Z"/><use transform="matrix(0.05,0,0,0.05,30,0)" xlink:href="#am"/><use transform="matrix(0.05,0,0,0.05,33.95,0)" xlink:href="#aa"/><use transform="matrix(0.05,0,0,0.05,43.95,0)" xlink:href="#ad"/><use transform="matrix(0.05,0,0,0.05,53.95,0)" xlink:href="#W"/></g><path fill="#3a414a" d="M84 4C-5 8 30-112 23-190h32v120c0 31 7 50 39 49 72-2 45-101 50-169h31l1 190h-30c-1-10 1-25-2-33-11 22-28 36-60 37" id="ar"/><path fill="#3a414a" d="M115-194c55 1 70 41 70 98S169 2 115 4C84 4 66-9 55-30l1 105H24l-1-265h31l2 30c10-21 28-34 59-34zm-8 174c40 0 45-34 45-75s-6-73-45-74c-42 0-51 32-51 76 0 43 10 73 51 73" id="as"/><path fill="#3a414a" d="M85-194c31 0 48 13 60 33l-1-100h32l1 261h-30c-2-10 0-23-3-31C134-8 116 4 85 4 32 4 16-35 15-94c0-66 23-100 70-100zm9 24c-40 0-46 34-46 75 0 40 6 74 45 74 42 0 51-32 51-76 0-42-9-74-50-73" id="at"/><path fill="#3a414a" d="M141-36C126-15 110 5 73 4 37 3 15-17 15-53c-1-64 63-63 125-63 3-35-9-54-41-54-24 1-41 7-42 31l-33-3c5-37 33-52 76-52 45 0 72 20 72 64v82c-1 20 7 32 28 27v20c-31 9-61-2-59-35zM48-53c0 20 12 33 32 33 41-3 63-29 60-74-43 2-92-5-92 41" id="au"/><path fill="#3a414a" d="M59-47c-2 24 18 29 38 22v24C64 9 27 4 27-40v-127H5v-23h24l9-43h21v43h35v23H59v120" id="av"/><path fill="#3a414a" d="M100-194c63 0 86 42 84 106H49c0 40 14 67 53 68 26 1 43-12 49-29l28 8c-11 28-37 45-77 45C44 4 14-33 15-96c1-61 26-98 85-98zm52 81c6-60-76-77-97-28-3 7-6 17-6 28h103" id="aw"/><path fill="#3a414a" d="M-5 72V49h209v23H-5" id="ax"/><g id="s"><use transform="matrix(0.05,0,0,0.05,0,0)" xlink:href="#ar"/><use transform="matrix(0.05,0,0,0.05,10,0)" xlink:href="#as"/><use transform="matrix(0.05,0,0,0.05,20,0)" xlink:href="#at"/><use transform="matrix(0.05,0,0,0.05,30,0)" xlink:href="#au"/><use transform="matrix(0.05,0,0,0.05,40,0)" xlink:href="#av"/><use transform="matrix(0.05,0,0,0.05,45,0)" xlink:href="#aw"/><use transform="matrix(0.05,0,0,0.05,55,0)" xlink:href="#at"/><use transform="matrix(0.05,0,0,0.05,65,0)" xlink:href="#ax"/><use transform="matrix(0.05,0,0,0.05,75,0)" xlink:href="#au"/><use transform="matrix(0.05,0,0,0.05,85,0)" xlink:href="#av"/></g><path fill="#3a414a" d="M135-143c-3-34-86-38-87 0 15 53 115 12 119 90S17 21 10-45l28-5c4 36 97 45 98 0-10-56-113-15-118-90-4-57 82-63 122-42 12 7 21 19 24 35" id="ay"/><path fill="#3a414a" d="M114-163C36-179 61-72 57 0H25l-1-190h30c1 12-1 29 2 39 6-27 23-49 58-41v29" id="az"/><path fill="#3a414a" d="M24-231v-30h32v30H24zM24 0v-190h32V0H24" id="aA"/><g id="t"><use transform="matrix(0.05,0,0,0.05,0,0)" xlink:href="#ar"/><use transform="matrix(0.05,0,0,0.05,10,0)" xlink:href="#ay"/><use transform="matrix(0.05,0,0,0.05,19,0)" xlink:href="#aw"/><use transform="matrix(0.05,0,0,0.05,29,0)" xlink:href="#az"/><use transform="matrix(0.05,0,0,0.05,34.95,0)" xlink:href="#ax"/><use transform="matrix(0.05,0,0,0.05,44.95,0)" xlink:href="#aA"/><use transform="matrix(0.05,0,0,0.05,48.900000000000006,0)" xlink:href="#at"/></g><path fill="#3a414a" d="M87 75C49 33 22-17 22-94c0-76 28-126 65-167h31c-38 41-64 92-64 168S80 34 118 75H87" id="aB"/><path fill="#3a414a" d="M63-220v92h138v28H63V0H30v-248h175v28H63" id="aC"/><path fill="#3a414a" d="M194 0L95-120 63-95V0H30v-248h33v124l119-124h40L117-140 236 0h-42" id="aD"/><path fill="#3a414a" d="M33-261c38 41 65 92 65 168S71 34 33 75H2C39 34 66-17 66-93S39-220 2-261h31" id="aE"/><g id="u"><use transform="matrix(0.05,0,0,0.05,0,0)" xlink:href="#aB"/><use transform="matrix(0.05,0,0,0.05,5.95,0)" xlink:href="#aC"/><use transform="matrix(0.05,0,0,0.05,16.900000000000002,0)" xlink:href="#aD"/><use transform="matrix(0.05,0,0,0.05,28.900000000000002,0)" xlink:href="#aE"/></g><path d="M67 3c-93-2-31-127-26-193h32L48-50c-3 39 53 32 70 12 30-34 30-101 43-152h32L157 0h-30c1-10 6-24 4-33-14 20-29 37-64 36" id="aF"/><path d="M66-151c12-25 30-51 66-40l-6 26C45-176 58-65 38 0H6l36-190h30" id="aG"/><g id="v"><use transform="matrix(0.05,0,0,0.05,0,0)" xlink:href="#aF"/><use transform="matrix(0.05,0,0,0.05,10,0)" xlink:href="#N"/><use transform="matrix(0.05,0,0,0.05,19,0)" xlink:href="#K"/><use transform="matrix(0.05,0,0,0.05,29,0)" xlink:href="#aG"/><use transform="matrix(0.05,0,0,0.05,34.95,0)" xlink:href="#N"/></g><g id="w"><use transform="matrix(0.05,0,0,0.05,0,0)" xlink:href="#aj"/><use transform="matrix(0.05,0,0,0.05,10,0)" xlink:href="#ag"/><use transform="matrix(0.05,0,0,0.05,19,0)" xlink:href="#aa"/><use transform="matrix(0.05,0,0,0.05,29,0)" xlink:href="#ac"/><use transform="matrix(0.05,0,0,0.05,34.95,0)" xlink:href="#W"/><use transform="matrix(0.05,0,0,0.05,44.95,0)" xlink:href="#ad"/><use transform="matrix(0.05,0,0,0.05,54.95,0)" xlink:href="#af"/><use transform="matrix(0.05,0,0,0.05,69.9,0)" xlink:href="#aa"/></g><path fill="#3a414a" d="M188 0h-37l-8-164L71 0H34L18-190h31l8 164 75-164h34l8 164 74-164h31" id="aH"/><g id="x"><use transform="matrix(0.05,0,0,0.05,0,0)" xlink:href="#ah"/><use transform="matrix(0.05,0,0,0.05,10,0)" xlink:href="#ad"/><use transform="matrix(0.05,0,0,0.05,20,0)" xlink:href="#ag"/><use transform="matrix(0.05,0,0,0.05,29,0)" xlink:href="#ag"/><use transform="matrix(0.05,0,0,0.05,38,0)" xlink:href="#aH"/><use transform="matrix(0.05,0,0,0.05,50.95,0)" xlink:href="#Z"/><use transform="matrix(0.05,0,0,0.05,60.95,0)" xlink:href="#ac"/><use transform="matrix(0.05,0,0,0.05,66.9,0)" xlink:href="#P"/></g><path fill="#3a414a" d="M100-194c62-1 85 37 85 99 1 63-27 99-86 99S16-35 15-95c0-66 28-99 85-99zM99-20c44 1 53-31 53-75 0-43-8-75-51-75s-53 32-53 75 10 74 51 75" id="aI"/><path fill="#3a414a" d="M101-234c-31-9-42 10-38 44h38v23H63V0H32v-167H5v-23h27c-7-52 17-82 69-68v24" id="aJ"/><path fill="#3a414a" d="M24 0v-261h32V0H24" id="aK"/><path fill="#3a414a" d="M96-169c-40 0-48 33-48 73s9 75 48 75c24 0 41-14 43-38l32 2c-6 37-31 61-74 61-59 0-76-41-82-99-10-93 101-131 147-64 4 7 5 14 7 22l-32 3c-4-21-16-35-41-35" id="aL"/><g id="y"><use transform="matrix(0.05,0,0,0.05,0,0)" xlink:href="#as"/><use transform="matrix(0.05,0,0,0.05,10,0)" xlink:href="#az"/><use transform="matrix(0.05,0,0,0.05,15.949999999999998,0)" xlink:href="#aI"/><use transform="matrix(0.05,0,0,0.05,25.950000000000003,0)" xlink:href="#aJ"/><use transform="matrix(0.05,0,0,0.05,30.950000000000003,0)" xlink:href="#aA"/><use transform="matrix(0.05,0,0,0.05,34.9,0)" xlink:href="#aK"/><use transform="matrix(0.05,0,0,0.05,38.85,0)" xlink:href="#aw"/><use transform="matrix(0.05,0,0,0.05,48.85,0)" xlink:href="#ax"/><use transform="matrix(0.05,0,0,0.05,58.85,0)" xlink:href="#as"/><use transform="matrix(0.05,0,0,0.05,68.85,0)" xlink:href="#aA"/><use transform="matrix(0.05,0,0,0.05,72.8,0)" xlink:href="#aL"/><use transform="matrix(0.05,0,0,0.05,81.8,0)" xlink:href="#av"/><use transform="matrix(0.05,0,0,0.05,86.8,0)" xlink:href="#ar"/><use transform="matrix(0.05,0,0,0.05,96.8,0)" xlink:href="#az"/><use transform="matrix(0.05,0,0,0.05,102.75,0)" xlink:href="#aw"/></g><path d="M89 0H52L20-190h33L74-25l89-165h34" id="aM"/><path d="M165-48c-4 18 1 34 23 27l-3 20c-29 8-62 0-52-35h-2C116-14 99 4 63 4 30 4 8-16 8-49c0-68 71-67 138-67 10-26 0-56-31-54-26 1-42 9-47 31l-32-5c8-67 160-71 144 15-5 28-9 54-15 81zM42-50c3 52 80 24 89-6 7-12 7-24 11-38-47 1-103-4-100 44" id="aN"/><path d="M6 0l50-261h32L37 0H6" id="aO"/><path d="M50-231l6-30h32l-6 30H50zM6 0l37-190h31L37 0H6" id="aP"/><g id="z"><use transform="matrix(0.05,0,0,0.05,0,0)" xlink:href="#K"/><use transform="matrix(0.05,0,0,0.05,10,0)" xlink:href="#aM"/><use transform="matrix(0.05,0,0,0.05,19,0)" xlink:href="#aN"/><use transform="matrix(0.05,0,0,0.05,29,0)" xlink:href="#aO"/><use transform="matrix(0.05,0,0,0.05,32.95,0)" xlink:href="#aF"/><use transform="matrix(0.05,0,0,0.05,42.95,0)" xlink:href="#aN"/><use transform="matrix(0.05,0,0,0.05,52.95,0)" xlink:href="#M"/><use transform="matrix(0.05,0,0,0.05,57.95,0)" xlink:href="#aP"/><use transform="matrix(0.05,0,0,0.05,61.900000000000006,0)" xlink:href="#I"/><use transform="matrix(0.05,0,0,0.05,71.9,0)" xlink:href="#L"/><use transform="matrix(0.05,0,0,0.05,81.9,0)" xlink:href="#N"/></g><g id="A"><use transform="matrix(0.05,0,0,0.05,0,0)" xlink:href="#ag"/><use transform="matrix(0.05,0,0,0.05,9,0)" xlink:href="#X"/><use transform="matrix(0.05,0,0,0.05,14,0)" xlink:href="#ad"/><use transform="matrix(0.05,0,0,0.05,24,0)" xlink:href="#X"/><use transform="matrix(0.05,0,0,0.05,29,0)" xlink:href="#aj"/><use transform="matrix(0.05,0,0,0.05,39,0)" xlink:href="#ag"/></g><g id="B"><use transform="matrix(0.05,0,0,0.05,0,0)" xlink:href="#aa"/><use transform="matrix(0.05,0,0,0.05,10,0)" xlink:href="#W"/><use transform="matrix(0.05,0,0,0.05,20,0)" xlink:href="#aj"/><use transform="matrix(0.05,0,0,0.05,30,0)" xlink:href="#af"/></g><path fill="#3a414a" d="M11 0l48-248h34L50-27h125l-5 27H11" id="aQ"/><path fill="#3a414a" d="M127 0L80-88 50-66 37 0H6l51-261h31L57-100l99-90h39l-93 82L161 0h-34" id="aR"/><path fill="#3a414a" d="M58-38C53-5 46 26 28 46H7C19 32 27 18 32 0H17l7-38h34" id="aS"/><g id="C"><use transform="matrix(0.05,0,0,0.05,0,0)" xlink:href="#Q"/><use transform="matrix(0.05,0,0,0.05,5.95,0)" xlink:href="#aQ"/><use transform="matrix(0.05,0,0,0.05,15.949999999999998,0)" xlink:href="#O"/><use transform="matrix(0.05,0,0,0.05,19.9,0)" xlink:href="#aR"/><use transform="matrix(0.05,0,0,0.05,28.899999999999995,0)" xlink:href="#aa"/><use transform="matrix(0.05,0,0,0.05,38.9,0)" xlink:href="#aS"/></g><path fill="#3a414a" d="M248-139C247-14 144 9 11 0l48-248c105-6 190 8 189 109zm-34 0c1-70-52-87-126-82L50-27c98 7 163-21 164-112" id="aT"/><g id="D"><use transform="matrix(0.05,0,0,0.05,0,0)" xlink:href="#aT"/><use transform="matrix(0.05,0,0,0.05,12.950000000000001,0)" xlink:href="#O"/><use transform="matrix(0.05,0,0,0.05,16.900000000000002,0)" xlink:href="#ag"/><use transform="matrix(0.05,0,0,0.05,25.900000000000002,0)" xlink:href="#am"/><use transform="matrix(0.05,0,0,0.05,29.85,0)" xlink:href="#O"/><use transform="matrix(0.05,0,0,0.05,33.800000000000004,0)" xlink:href="#aR"/><use transform="matrix(0.05,0,0,0.05,42.800000000000004,0)" xlink:href="#aa"/><use transform="matrix(0.05,0,0,0.05,52.800000000000004,0)" xlink:href="#aS"/></g><path fill="#3a414a" d="M173 0L80-213 41 0H11l48-248h37l94 214 40-214h30L212 0h-39" id="aU"/><g id="E"><use transform="matrix(0.05,0,0,0.05,0,0)" xlink:href="#aU"/><use transform="matrix(0.05,0,0,0.05,12.950000000000001,0)" xlink:href="#Z"/><use transform="matrix(0.05,0,0,0.05,22.950000000000003,0)" xlink:href="#W"/><use transform="matrix(0.05,0,0,0.05,32.95,0)" xlink:href="#aa"/><use transform="matrix(0.05,0,0,0.05,42.95,0)" xlink:href="#T"/></g><g id="F"><use transform="matrix(0.05,0,0,0.05,0,0)" xlink:href="#aj"/><use transform="matrix(0.05,0,0,0.05,10,0)" xlink:href="#ag"/><use transform="matrix(0.05,0,0,0.05,19,0)" xlink:href="#aa"/><use transform="matrix(0.05,0,0,0.05,29,0)" xlink:href="#ac"/><use transform="matrix(0.05,0,0,0.05,34.95,0)" xlink:href="#ae"/><use transform="matrix(0.05,0,0,0.05,44.95,0)" xlink:href="#O"/><use transform="matrix(0.05,0,0,0.05,48.900000000000006,0)" xlink:href="#P"/></g><g id="G"><use transform="matrix(0.05,0,0,0.05,0,0)" xlink:href="#Y"/><use transform="matrix(0.05,0,0,0.05,9,0)" xlink:href="#Z"/><use transform="matrix(0.05,0,0,0.05,19,0)" xlink:href="#af"/><use transform="matrix(0.05,0,0,0.05,33.95,0)" xlink:href="#af"/><use transform="matrix(0.05,0,0,0.05,48.900000000000006,0)" xlink:href="#aa"/><use transform="matrix(0.05,0,0,0.05,58.900000000000006,0)" xlink:href="#W"/><use transform="matrix(0.05,0,0,0.05,68.9,0)" xlink:href="#X"/><use transform="matrix(0.05,0,0,0.05,73.9,0)" xlink:href="#ae"/><use transform="matrix(0.05,0,0,0.05,83.9,0)" xlink:href="#O"/><use transform="matrix(0.05,0,0,0.05,87.85000000000001,0)" xlink:href="#P"/></g></defs></g></svg>